<svg xmlns="http://www.w3.org/2000/svg" viewBox="0 0 48 48">
          <path fill="#0078d4" d="M19 5h23v29H19z" />
          <path fill="#28a8ea" d="M19 5h23v10H19z" />
          <path fill="#50d9ff" d="M19 15h11v9H19z" />
          <path fill="#1490df" d="M30 15h12v9H30z" />
          <path fill="#0364b8" d="M19 24h11v10H19z" />
          <path fill="#0078d4" d="m17 23 27-1v19a3 3 0 0 1-3 3H20a3 3 0 0 1-3-3z" />
          <path fill="#28a8ea" d="m17 23 14 11 13-12v19a3 3 0 0 1-3 3H20a3 3 0 0 1-3-3z" />
          <path fill="#0364b8" d="m3 12 23-4v32L3 36z" />
          <ellipse cx="14.5" cy="24" rx="6" ry="8" fill="#fff" />
          <ellipse cx="14.5" cy="24" rx="3.2" ry="5.2" fill="#0364b8" />
        </svg>
